# xmcd CD database file
#
# Track frame offsets:
#	182
#	41525
#	102247
#	136507
#	192087
#	232572
#
# Disc length: 3890 seconds
#
# Revision: 0
# Processed by: cddbd v1.5.1PL0 Copyright (c) Steve Scherf et al.
# Submitted via: CDex 1.51
#
DISCID=390f3006
DTITLE=ART BLAKEY and his JAZZ MESSENGERS - LIVE
DYEAR=1900
DGENRE=Jazz
TTITLE0=Birdlike
TTITLE1=Hawkman
TTITLE2=Bitter loose
TTITLE3=New blues march
TTITLE4=Fuller lane
TTITLE5=With hunt
EXTD=
EXTT0=
EXTT1=
EXTT2=
EXTT3=
EXTT4=
EXTT5=
PLAYORDER=
